<?xml version="1.0" standalone="no"?>
<!DOCTYPE svg PUBLIC "-//W3C//DTD SVG 1.1//EN" "http://www.w3.org/Graphics/SVG/1.1/DTD/svg11.dtd" >

<svg>
<metadata>
Created by webfont
</metadata>
<defs>

<font id="Noto Sans S Chinese Bold" horiz-adv-x="1000" vert-adv-y="1000" >
  <font-face
    
    font-family="Noto Sans S Chinese Bold"
    
    font-weight="700"
    
    font-stretch="normal"
    
    units-per-em="1000"
    
    panose-1="0 0 0 0 0 0 0 0 0 0"
    
    ascent="880"
    
    descent="-120"
    
    x-height="560"
    
    cap-height="740"
    
    bbox="-1013 -1046 2926 1806"
    
    underline-thickness="50"
    
    underline-position="-100"
    
    unicode-range="U+0001-2CE93"
    
  />
    <missing-glyph />
    
    <glyph glyph-name="cid10562" unicode="&#x4FDD;" d="M760 262q45 -66 105.5 -123.5t123.5 -94.5q-10 -9 -22 -20.5t-23 -24.5t-21.5 -26t-17.5 -24q-55 39 -107.5 97t-95.5 125v-258h-120v253q-46 -66 -101 -121.5t-115 -93.5q-7 11 -16.5 24t-21 26t-23 24.5t-21.5 20.5q68 35 131 92.5t110 123.5h-205v108h262v90h-196v343
h525v-343h-209v-90h258v-108h-200zM499 565h293v134h-293v-134zM366 809q-20 -49 -43 -99t-50 -98v-697h-113v523q-19 -24 -37.5 -46.5t-38.5 -42.5q-4 11 -12 27.5t-17 33.5t-18.5 33.5t-16.5 27.5q35 34 69 76.5t64.5 91t56.5 101t46 105.5z"     />

    
    <glyph glyph-name="cid11276" unicode="&#x5168;" d="M562 382v-115h238v-104h-238v-120h366v-107h-850v107h359v120h-228v104h228v115h-242v67q-47 -27 -96 -51q-12 23 -35 50.5t-46 48.5q67 28 133.5 65.5t126.5 83.5t111.5 99t89.5 111l106 -49l-18 -27q90 -96 193 -164t224 -121q-23 -20 -46 -48t-34 -54q-25 14 -49 27
t-47 26v-64h-246zM744 487q-66 44 -126.5 94.5t-118.5 113.5q-109 -120 -243 -208h488z"     />

    
    <glyph glyph-name="cid11304" unicode="&#x5177;" d="M701 127q37 -16 74 -33t71.5 -33.5t65 -32.5t54.5 -30l-94 -84q-25 16 -58.5 35.5t-72 39.5t-79.5 40t-81 37l57 61h-300l81 -57q-29 -22 -66 -43.5t-77 -42t-81 -37.5t-78 -30q-7 9 -17.5 20t-22.5 22.5t-23.5 22.5t-21.5 20q34 11 70 25.5t70.5 31t66 34t55.5 34.5
h-247v107h141v567h638v-567h131v-107h-256zM700 568h-393v-53h393v53zM307 431v-55h393v55h-393zM307 707v-55h393v55h-393zM307 234h393v58h-393v-58z"     />

    
    <glyph glyph-name="cid11606" unicode="&#x5236;" d="M936 830v-776q0 -48 -11 -75t-38 -41q-28 -15 -71 -19t-101 -4q-2 12 -5.5 27.5t-8 31.5t-10 32t-11.5 29q19 -1 38 -1.5t35 -0.5h28.5h18.5q12 0 17 4.5t5 17.5v775h114zM754 202h-111v563h111v-563zM379 532h219v-107h-219v-73h195v-255q0 -35 -7 -56.5t-29 -34.5
q-21 -13 -49.5 -16t-66.5 -2q-2 23 -10.5 51t-18.5 50q21 -2 37.5 -2t24.5 1q7 0 9.5 2t2.5 10v146h-88v-332h-113v332h-82v-253h-106v359h188v73h-227v107h75q-10 5 -22 10.5t-24 10.5t-23.5 9.5t-20.5 7.5q31 48 54.5 117.5t37.5 141.5l109 -23q-5 -23 -10.5 -45.5
t-12.5 -45.5h64v126h113v-126h179v-108h-179v-75zM266 532v75h-101q-8 -21 -17 -39.5t-17 -35.5h135z"     />

    
    <glyph glyph-name="cid11785" unicode="&#x52A1;" d="M899 709q-45 -66 -108 -117t-141 -91q72 -16 151.5 -25t167.5 -13q-9 -10 -18.5 -23t-18 -27t-16 -28t-13.5 -26q-115 8 -216 26.5t-186 50.5q-97 -33 -200.5 -54.5t-209.5 -34.5q-3 11 -8 25t-11 28t-13 27.5t-14 23.5q82 7 162.5 19.5t155.5 32.5q-29 17 -55 38t-50 45
q-26 -18 -53.5 -35.5t-59.5 -33.5q-5 10 -13.5 23.5t-18 26t-19.5 24t-18 18.5q106 48 176.5 111.5t108.5 127.5l121 -25q-11 -18 -23 -36t-26 -35h374l17 5zM335 647q61 -62 165 -103q60 22 111.5 49t93.5 60h-363zM887 293l-6 -48q-9 -64 -18 -111.5t-19 -81t-22 -55.5
t-25 -34q-23 -20 -47.5 -27.5t-58.5 -9.5q-28 -2 -72.5 -1.5t-94.5 2.5q-2 23 -12 52t-25 50q24 -2 49 -3.5t47.5 -2.5t41 -1h29.5q16 0 27 1.5t21 9.5q15 12 29 50t25 109h-267q-26 -55 -61 -98t-80.5 -76.5t-101.5 -58.5t-124 -44q-5 9 -13 22.5t-18 27.5t-20 26.5
t-18 21.5q110 23 185.5 65t119.5 114h-239v101h283q5 20 9 41t7 44l123 -10q-4 -20 -8 -38.5t-9 -36.5h363z"     />

    
    <glyph glyph-name="cid12096" unicode="&#x5355;" d="M952 79h-392v-163h-123v163h-386v111h386v65h-298v422h161q-15 29 -37.5 61t-44.5 59l102 45q15 -16 30 -34.5t29 -38t25.5 -38t19.5 -33.5l-43 -21h214q24 37 48 80.5t38 81.5l132 -38q-20 -33 -42 -64t-42 -60h143v-422h-312v-65h392v-111zM749 422h-189v-69h189v69z
M749 580h-189v-68h189v68zM255 512h182v68h-182v-68zM437 353v69h-182v-69h182z"     />

    
    <glyph glyph-name="cid13372" unicode="&#x5668;" d="M729 332q52 -35 115.5 -62t132.5 -44q-20 -17 -41 -45t-33 -50q-8 2 -15.5 4.5t-15.5 5.5v-223h-115v18h-118v-24h-109v316h168q-35 23 -66 49t-57 55h-175q-56 -57 -123 -104h184v-310h-114v18h-106v-24h-109v235q-11 -5 -21.5 -9.5t-21.5 -9.5q-4 10 -11 23t-15.5 26
t-18 24.5t-18.5 19.5q64 23 116.5 51t95.5 60h-190v103h298q16 20 29 40.5t24 41.5h-288v289h340v-276l76 -14q-10 -21 -21.5 -41t-23.5 -40h208q-21 12 -44 23.5t-45 19.5l41 39h-107v289h352v-289h-171q27 -13 53 -27.5t43 -28.5l-26 -26h167v-103h-224zM642 617h131v89
h-131v-89zM339 706h-122v-89h122v89zM347 126h-106v-87h106v87zM757 39v87h-118v-87h118z"     />

    
    <glyph glyph-name="cid14485" unicode="&#x590D;" d="M845 226q-36 -51 -84.5 -92t-108.5 -73q72 -15 152 -24t168 -12q-17 -19 -35 -49t-29 -53q-112 8 -211.5 26t-185.5 50q-101 -35 -212.5 -55t-228.5 -31q-3 11 -7.5 25t-10 28t-12 27.5t-13.5 23.5q91 5 179 16.5t169 30.5q-29 18 -54.5 38.5t-48.5 43.5
q-26 -20 -53.5 -37.5t-53.5 -32.5q-6 7 -16.5 17.5t-22 21t-23 20.5t-20.5 16q62 28 121.5 69t101.5 89h-107v285q-20 -20 -41 -38.5t-42 -33.5q-6 8 -15.5 19.5t-20 24.5t-21 24.5t-18.5 19.5q31 21 61 47.5t57 57t49.5 64t38.5 68.5l108 -33q-7 -13 -13.5 -26t-14.5 -27
h593v-96h-660q-8 -11 -17 -22l-18 -22h628v-312h-437l17 -6l-14 -18t-15 -18h349l19 5zM319 502h409v41h-409v-41zM319 387h409v42h-409v-42zM357 181q29 -24 66 -43t79 -36q45 17 84 36t71 43h-300z"     />

    
    <glyph glyph-name="cid15946" unicode="&#x5B9E;" d="M585 155q49 -14 98.5 -31t96 -36t87 -38t70.5 -37l-73 -95q-29 19 -66.5 39.5t-81 40t-91 37.5t-95.5 33zM538 175q-23 -45 -56 -84t-81 -71.5t-111.5 -58.5t-145.5 -46q-8 23 -27 52.5t-39 49.5q122 26 197 65t118 93h-323v100h376q23 66 28.5 146.5t8.5 177.5h126
q-3 -93 -9.5 -173.5t-25.5 -150.5h362v-100h-398zM200 475q19 -9 41 -21t42 -25.5t38 -27t30 -25.5l-71 -88q-11 12 -28 26.5t-37 28.5t-41.5 27.5t-41.5 24.5zM376 433q-11 13 -27 27.5t-35.5 29.5t-40 29t-39.5 25l69 77q19 -9 40 -21.5t41.5 -26t37.5 -28t29 -27.5z
M198 525h-119v228h366q-8 18 -16.5 36t-17.5 33l119 37q15 -24 30.5 -52t26.5 -54h337v-228h-125v117h-601v-117z"     />

    
    <glyph glyph-name="uni5DE5" unicode="&#x5DE5;" d="M957 102v-120h-909v120h381v517h-327v124h799v-124h-336v-517h392z"     />

    
    <glyph glyph-name="cid17931" unicode="&#x5FD7;" d="M833 264q16 -30 34.5 -64t35.5 -68t31.5 -65.5t23.5 -56.5l-116 -46q-8 25 -21 57.5t-29 67t-33 70t-33 66.5zM616 34q18 0 29 4t18 15.5t10 32.5t5 56q10 -7 23.5 -13.5t28 -12t29 -9.5t26.5 -7q-5 -51 -15 -84.5t-28.5 -53t-46.5 -27t-70 -7.5h-190q-52 0 -86 7
t-53.5 23t-27 43t-7.5 68v193h118v-192q0 -12 2.5 -19t10 -11t20.5 -5t35 -1h169zM40 25q29 45 52 108t35 123l107 -38q-7 -31 -16 -64.5t-19.5 -66t-23 -63t-27.5 -55.5zM436 611h-381v112h381v125h125v-125h387v-112h-387v-125h327v-113h-424q28 -17 58 -36.5t58.5 -40
t53 -41t41.5 -39.5l-86 -79q-17 19 -41.5 41.5t-54 45.5t-61.5 45t-62 40l74 64h-325v113h317v125z"     />

    
    <glyph glyph-name="cid18154" unicode="&#x6062;" d="M795 570q-5 -90 -13 -167t-22 -144q29 -83 82.5 -150.5t129.5 -102.5q-18 -15 -39 -40.5t-33 -47.5q-60 34 -105 87.5t-77 121.5q-35 -76 -91.5 -129t-145.5 -87q-10 22 -28 49.5t-35 44.5q84 27 136 76.5t82 121t43 164.5t18 206zM662 476q-11 -73 -29 -141.5
t-44 -116.5q-13 10 -35 23.5t-38 20.5q24 45 38.5 105.5t22.5 123.5zM943 477q-6 -35 -15 -70.5t-18.5 -69t-20 -64.5t-20.5 -55q-15 9 -40.5 20t-43.5 18q22 46 39.5 111.5t28.5 129.5zM563 603q-27 -168 -75 -306.5t-126 -238.5q-6 7 -16.5 18.5t-23 23t-24.5 22.5t-21 18
q70 83 111.5 201t64.5 262h-96q12 -33 20.5 -64t11.5 -56l-86 -33q-4 30 -14 71t-24 82v-689h-110v680q-4 -60 -14 -124.5t-27 -112.5l-87 33q10 24 17.5 56t13 67t9 70.5t5.5 67.5l83 -11v208h110v-188l60 22q8 -18 16 -36.5t15 -38.5v101h112q4 35 7.5 70t6.5 71l110 -9
q-3 -34 -6.5 -67t-7.5 -65h371v-105h-386z"     />

    
    <glyph glyph-name="uni6237" unicode="&#x6237;" d="M864 697v-430h-122v52h-477q-5 -54 -14.5 -109.5t-25 -109t-38.5 -103.5t-54 -92q-9 9 -22 19.5t-28 21t-29.5 19t-25.5 13.5q40 53 63.5 116.5t35.5 129t15.5 129.5t3.5 118v226h322q-9 29 -22.5 63t-26.5 63l119 29q17 -32 33 -70.5t25 -66.5l-62 -18h330zM742 430v157
h-471v-116v-41h471z"     />

    
    <glyph glyph-name="cid19169" unicode="&#x62A4;" d="M934 677v-419h-118v52h-269q-4 -52 -12.5 -106t-25 -106.5t-41 -100.5t-59.5 -87q-7 9 -19 21.5t-25.5 24.5t-27 22.5t-23.5 16.5q40 45 63.5 99t35.5 110.5t15.5 112.5t3.5 106v254h224q-11 29 -30.5 63.5t-39.5 63.5l108 39q12 -16 24.5 -34t23.5 -36t19.5 -35.5
t14.5 -32.5l-69 -28h227zM816 423v148h-265v-148h265zM393 323q-26 -8 -53.5 -16t-55.5 -16v-239q0 -43 -9 -68t-33 -40t-58.5 -20t-84.5 -5q-3 24 -12.5 58t-20.5 59q28 -1 51.5 -1t33.5 1q16 0 16 17v205q-31 -8 -59 -15.5t-55 -15.5l-26 115q30 7 65.5 15t74.5 18v170
h-124v113h124v188h117v-188h99v-113h-99v-140l94 26z"     />

    
    <glyph glyph-name="uni65E5" unicode="&#x65E5;" d="M850 787v-860h-128v63h-444v-65h-123v862h695zM278 667v-215h444v215h-444zM722 110v224h-444v-224h444z"     />

    
    <glyph glyph-name="cid21098" unicode="&#x670D;" d="M954 445q-17 -102 -47.5 -184.5t-72.5 -150.5q32 -33 69 -60t79 -45q-18 -17 -39.5 -44t-34.5 -49q-78 44 -142 109q-57 -63 -131 -107q-9 17 -25.5 40t-33.5 40v-82h-113v899h460v-193q0 -39 -10.5 -61.5t-42.5 -34.5q-29 -11 -72 -13t-100 -2q-4 23 -14 50.5t-21 49.5
q19 -1 38.5 -1.5t36.5 -1t30.5 0t19.5 0.5q12 1 16.5 4t4.5 12v80h-233v-237h289l18 4zM683 357q31 -84 77 -156q41 71 65 156h-142zM576 7q34 19 64 44.5t58 57.5q-37 55 -65 117t-51 131h-6v-350zM408 43q0 -42 -8 -67.5t-33 -40.5q-23 -14 -56.5 -18t-82.5 -4
q-1 12 -4 27t-7.5 31t-9.5 31t-11 26q27 -2 51.5 -1.5t33.5 0.5t13 3.5t4 14.5v198h-105q-7 -88 -23 -175t-47 -156q-8 6 -20.5 14t-26 16t-26.5 14.5t-23 10.5q23 51 36.5 112t20 125t8 127t1.5 118v363h315v-769zM200 702v-116h98v116h-98zM298 355v121h-98v-27v-46
t-1 -48h99z"     />

    
    <glyph glyph-name="cid25407" unicode="&#x70B9;" d="M834 173q18 -24 37 -51t37 -55t33 -54.5t24 -48.5l-115 -44q-8 21 -21.5 48t-30 55.5t-35 57.5t-36.5 54zM633 153q12 -24 23.5 -50.5t21.5 -52.5t18 -51t13 -44l-115 -30q-4 19 -11.5 44.5t-17 52.5t-20 54.5t-21.5 52.5zM433 141q6 -26 10.5 -54t8.5 -55t6 -52.5
t3 -44.5l-121 -15q0 19 -1.5 45t-4 54t-6.5 56.5t-8 54.5zM31 -30q18 16 36 38.5t34.5 48.5t30 53.5t24.5 54.5l115 -28q-22 -60 -56 -120t-74 -100zM848 206h-693v347h280v294h121v-88h358v-111h-358v-95h292v-347zM727 443h-459v-127h459v127z"     />

    
    <glyph glyph-name="cid26906" unicode="&#x7406;" d="M973 52v-108h-643v108h276v95h-207v107h207v86h-200v465h522v-465h-201v-86h212v-107h-212v-95h246zM815 527h-99v-86h99v86zM815 704h-99v-83h99v83zM513 621h103v83h-103v-83zM513 441h103v86h-103v-86zM379 113q-83 -29 -168.5 -57t-157.5 -51l-27 121q26 7 56.5 15
t65.5 18v235h-101v109h101v176h-110v111h330v-111h-107v-176h90v-109h-90v-200q25 8 49.5 15.5t48.5 15.5z"     />

    
    <glyph glyph-name="uni7528" unicode="&#x7528;" d="M899 54q0 -48 -12 -74t-42 -40q-31 -14 -77.5 -18t-114.5 -3q-2 12 -6 27t-9 30.5t-11 30t-12 26.5q21 -1 43 -1.5t41.5 -0.5h34h21.5q14 0 20 5t6 19v150h-211v-279h-120v279h-204q-14 -82 -43 -160t-83 -137q-7 8 -19 19t-25 22.5t-26.5 21t-23.5 14.5q41 45 64.5 99.5
t35.5 112t15 115.5t3 111v357h755v-726zM781 667h-211v-116h211v116zM262 667v-116h188v116h-188zM450 317v123h-188v-18q0 -50 -3 -105h191zM781 317v123h-211v-123h211z"     />

    
    <glyph glyph-name="cid29556" unicode="&#x79FB;" d="M970 363q-32 -98 -85.5 -172t-124 -128.5t-155 -92t-178.5 -61.5q-9 22 -27 49.5t-34 45.5q76 16 146 43t130 66q-20 17 -43.5 33.5t-45.5 29.5l91 60q20 -11 42 -25.5t42 -29.5q26 26 48 54t39 60h-148q-42 -41 -93.5 -78.5t-114.5 -69.5q-5 10 -13.5 21.5t-18.5 23.5
t-21 22.5t-20 17.5q94 42 159.5 96.5t106.5 111.5q-100 -52 -210 -82q-10 21 -27.5 47t-33.5 43q104 24 196 70q-17 14 -36 28t-38 25l87 56q20 -11 41 -24t40 -27q26 19 47.5 39.5t39.5 43.5h-166q-32 -27 -67.5 -51.5t-77.5 -47.5q-6 10 -15.5 21.5t-20.5 23t-22 21.5
t-21 16q91 43 155.5 97.5t100.5 107.5l120 -26q-12 -16 -24.5 -32t-26.5 -32h136l20 4l77 -38q-35 -81 -90.5 -142t-126.5 -107l87 -17q-10 -17 -20.5 -32t-22.5 -31h119l20 4zM345 206q-8 20 -23.5 49t-32.5 58v-400h-111v380q-23 -64 -48 -121.5t-54 -99.5
q-8 26 -24.5 58.5t-29.5 55.5q18 24 35.5 55.5t34 66.5t30.5 72.5t25 73.5h-111v111h142v120q-26 -5 -50 -9t-48 -7q-3 20 -13 46t-20 46q78 14 155.5 34.5t134.5 46.5l68 -97q-27 -11 -56 -20t-60 -17v-143h112v-111h-112v-17q10 -10 28 -29.5t36.5 -40t34.5 -39t22 -27.5z
"     />

    
    <glyph glyph-name="cid30423" unicode="&#x7BA1;" d="M950 775v-82h-138q14 -18 25.5 -34.5t19.5 -30.5l-100 -45q-8 23 -28.5 52.5t-43.5 57.5h-41q-27 -47 -56 -78q-8 6 -20.5 13t-26.5 14t-27.5 13t-23.5 11q35 35 60.5 85t39.5 103l115 -21q-5 -14 -10 -29t-11 -29h266zM528 646q11 -17 21.5 -37.5t18.5 -39.5h362v-174
h-122v85h-617v-85h-115v174h372q-5 14 -11.5 29t-14.5 27zM317 170h541v-258h-119v27h-422v-27h-121v527h609v-223h-488v-46zM317 353v-52h372v52h-372zM317 83v-56h422v56h-422zM215 693q-19 -34 -39.5 -63t-41.5 -52q-9 6 -22.5 13t-27.5 14.5t-28.5 14t-24.5 11.5
q42 41 76.5 100.5t54.5 122.5l117 -22q-5 -14 -10.5 -28t-12.5 -28h239v-83h-123q14 -20 24.5 -38t16.5 -32l-101 -37q-7 21 -23.5 50t-33.5 57h-40z"     />

    
    <glyph glyph-name="cid31161" unicode="&#x7CFB;" d="M715 223q29 -20 61 -44t63 -49t58 -49t45 -45l-105 -70q-17 20 -42 44.5t-54.5 50.5t-61.5 51.5t-61 46.5zM565 276v-233q0 -44 -11.5 -68.5t-44.5 -38.5q-32 -14 -74.5 -16.5t-98.5 -2.5q-5 26 -17.5 59.5t-25.5 56.5q19 -1 39 -1.5t38 -0.5h32h20q13 1 17.5 4t4.5 12
v219q-86 -7 -140 -12t-87 -9t-50 -8t-30 -9q-2 8 -6 21t-8.5 28t-10 30t-9.5 26q30 4 62 17.5t79 36.5q23 11 61.5 31.5t88.5 49.5q-59 -4 -96.5 -7t-60.5 -6t-35 -6t-20 -6q-2 9 -6 21.5t-8.5 27t-10 28.5t-9.5 25q18 2 36.5 11.5t39.5 26.5q17 8 51.5 35.5t73.5 63.5
q-58 -4 -114.5 -6.5t-112.5 -4.5q-1 11 -4 25t-7 28t-8.5 27.5t-8.5 23.5q91 3 187 9.5t186.5 16t172.5 22t145 27.5l84 -98q-78 -19 -168 -32.5t-187 -23.5q-38 -38 -80.5 -72.5t-87.5 -66.5l200 10q37 26 72.5 52.5t68.5 55.5l86 -77q-89 -70 -184.5 -129.5t-192.5 -108.5
l301 21q-14 16 -28.5 30.5l-28.5 28.5l90 47q28 -26 57 -55.5t55 -59.5t47.5 -59t36.5 -53l-93 -56q-11 19 -26.5 41.5t-35.5 47.5zM364 174q-22 -29 -49 -58t-56 -56t-58.5 -51t-56.5 -43q-9 8 -22 19t-27.5 22t-29 21t-25.5 17q28 15 57 35t55.5 42.5t50 47t41.5 48.5z
"     />

    
    <glyph glyph-name="cid32097" unicode="&#x7EDF;" d="M847 30q6 0 10 5.5t6.5 21.5t3.5 45t2 76q9 -7 22 -14t27 -13t27.5 -11t24.5 -8q-3 -59 -10.5 -98t-20 -62t-32.5 -32.5t-48 -9.5h-69q-33 0 -54.5 7t-34 22.5t-17 41t-4.5 63.5v282h117v-281q0 -23 2.5 -29t13.5 -6h34zM609 345q-3 -79 -11.5 -145.5t-31 -121t-64 -97
t-109.5 -73.5q-11 23 -31.5 52t-40.5 46q57 24 90 56t50 73.5t23 93.5t8 116h117zM395 84q-85 -35 -171.5 -69.5t-159.5 -61.5l-27 118q31 9 70 21.5t82.5 27.5t90 31.5t93.5 32.5zM375 360q-3 -25 -2.5 -55.5t2.5 -48.5q-89 -21 -144.5 -34.5t-88 -22.5t-48 -15.5
t-25.5 -12.5q-2 9 -6.5 23t-9.5 29.5t-11 31t-11 26.5q20 5 37.5 20.5t41.5 43.5q10 12 28.5 35.5t41.5 56.5q-29 -3 -49 -6t-33 -6t-21 -5.5t-14 -5.5q-3 9 -7.5 24t-10.5 32t-12 33.5t-12 29.5q17 4 30 19t30 39q8 12 22.5 39t32 63t34.5 78.5t30 85.5l121 -56
q-28 -67 -65.5 -135.5t-79.5 -126.5l72 6q31 51 56 104l103 -65q-37 -66 -80.5 -130t-90.5 -123zM865 315q-6 16 -14.5 33.5t-18.5 37.5q-128 -13 -205.5 -21.5t-122 -14.5t-64.5 -10.5t-32 -10.5q-2 11 -6.5 26.5t-9.5 32t-10 31.5t-9 24q16 4 36 11.5t37 21.5l18 21t27 33
t31.5 40t31.5 41h-157v106h222q-8 23 -18 52.5t-21 54.5l112 28q14 -28 28.5 -61t21.5 -56l-64 -18h275v-106h-260q-27 -37 -56.5 -76.5t-57.5 -73.5l198 16q-12 19 -24 36.5t-23 34.5l91 45q20 -26 41 -55.5t40.5 -59.5t35.5 -58.5t26 -51.5z"     />

    
    <glyph glyph-name="cid32392" unicode="&#x7FA4;" d="M968 132h-181v-219h-115v219h-168v111h168v105h-134v109h134v91h-146v107h59q-7 34 -22.5 76t-35.5 77l95 33q23 -38 41.5 -83t26.5 -80l-64 -23h218l-83 22q8 18 16.5 39.5t17 44.5t15 45.5t11.5 42.5l115 -27q-19 -46 -38.5 -90t-36.5 -77h87v-107h-161v-91h143v-109
h-143v-105h181v-111zM479 298v-337h-234v-49h-108v232q-10 -11 -20 -23t-21 -23q-4 8 -13 20t-19.5 24.5t-21.5 23.5l-19 19q39 38 65.5 85.5t45.5 104.5h-49v100h74q2 15 5 30t5 32h-134l-1 99h144q2 16 2.5 32t1.5 33h-92v100h369v-165h49v-99h-49v-162h-217
q-5 -20 -10.5 -39t-12.5 -38h260zM290 701q-2 -17 -2.5 -33t-2.5 -32h64v65h-59zM274 537q-2 -16 -4 -31t-5 -31h84v62h-75zM245 196v-133h119v133h-119z"     />

    
    <glyph glyph-name="cid33948" unicode="&#x8282;" d="M950 748v-113h-208v-96h-126v96h-227v-96h-123v96h-215v113h215v99h123v-99h227v99h126v-99h208zM870 173q0 -48 -12.5 -75.5t-47.5 -42.5q-35 -14 -84.5 -17t-119.5 -3q-3 28 -13 64t-21 62q22 -1 45 -1.5t43.5 -0.5h36h22.5q14 0 20 3.5t6 14.5v200h-286v-462h-126v462
h-236v114h773v-318z"     />

    
    <glyph glyph-name="cid34674" unicode="&#x83DC;" d="M651 170q63 -45 146 -78.5t171 -51.5q-10 -9 -21.5 -22t-22.5 -27.5t-20.5 -28.5t-16.5 -26q-90 26 -175 73.5t-151 110.5v-207h-124v206q-69 -62 -155 -109.5t-174 -75.5q-7 12 -16.5 26t-21 28t-22.5 27.5t-21 22.5q83 20 164 54.5t144 77.5h-278v104h380v67h16
q-5 26 -19 60.5t-32 63.5l104 34q20 -30 36.5 -65t21.5 -63l-91 -30h88v-67h385v-104h-295zM204 297q-4 15 -12.5 33.5t-19 37.5t-23 38t-24.5 36l99 40q13 -16 26.5 -34.5t25 -37.5t20.5 -37t14 -34zM680 338q13 19 27 42t27 47.5t24.5 49t19.5 46.5l122 -44
q-32 -49 -65 -97.5t-60 -82.5zM275 683h-218v104h218v59h121v-59h210v59h122v-59h218v-104h-218v-46q21 3 40 6.5t37 7.5l94 -92q-82 -19 -179 -32t-200.5 -21t-208.5 -12t-203 -5q-2 22 -10 52t-16 50q82 1 167.5 4.5t168 9t160 13.5t142.5 18h-114v47h-210v-60h-121v60z
"     />

    
    <glyph glyph-name="cid40242" unicode="&#x8FC1;" d="M278 120q11 -8 24.5 -16.5t30.5 -17.5q51 -28 119 -36t152 -8q40 0 88.5 1.5t98 4.5t96.5 7.5t85 9.5q-5 -12 -10.5 -27t-10 -31.5t-8 -32t-4.5 -27.5q-27 -2 -69 -4t-89 -3.5t-95 -2.5t-86 -1q-95 0 -162 11t-122 41q-34 18 -59 36.5t-42 18.5q-11 0 -24.5 -11
t-27.5 -28.5t-29 -39.5t-28 -44l-77 108q34 36 67.5 62.5t65.5 40.5v230h-116v110h232v-351zM205 594q-11 18 -28 40t-37.5 44.5t-43 44.5t-43.5 40l87 65q21 -18 44 -38.5t44.5 -42t40 -43t30.5 -39.5zM573 407h-254v108h254v165q-51 -7 -101.5 -12t-98.5 -9
q-4 20 -13.5 47.5t-18.5 46.5q66 6 133.5 15t131.5 21t121.5 26t102.5 30l76 -92q-48 -17 -102 -30t-113 -24v-184h263v-108h-263v-335h-118v335z"     />

    
    <glyph glyph-name="cid43467" unicode="&#x96C6;" d="M666 134q67 -38 148 -67.5t160 -46.5q-9 -9 -20 -21t-21 -25t-18.5 -26t-14.5 -23q-88 25 -178 67.5t-165 96.5v-174h-118v169q-75 -54 -166 -96.5t-179 -67.5q-14 22 -36 50.5t-41 47.5q82 17 166 47.5t154 68.5h-287v95h389v51h118v-51h392v-95h-283zM161 548
q-14 -12 -27 -23.5t-27 -22.5q-7 9 -17.5 20.5t-21.5 22.5t-23 20t-22 15q84 60 143.5 131.5t93.5 136.5l121 -23q-23 -38 -48 -75h162q-7 19 -15 37t-16 35l107 30q14 -23 27 -50.5t21 -51.5h281v-91h-305v-42h260v-77h-260v-40h261v-77h-261v-44h329v-90h-645v-27h-118
v286zM481 423h-202v-44h202v44zM481 540h-202v-40h202v40zM481 659h-202v-42h202v42z"     />

    

  </font>
</defs>
</svg>
